# xmcd
#
# Track frame offsets:
#  150
#  20597
#  37667
#  56690
#  75212
#  94120
#  116915
#  130022
#  156092
#  172370
#  196437
#
# Disc length: 2749 seconds
#
# Revision: 0
# Processed by: cddbd v1.4PL0 Copyright (c) Steve Scherf et al.
# Submitted via: AltoMP3_Maker 3.0
#
DISCID=890abb0b
DTITLE=Gwyn Ashton - Feel The Heat
DYEAR=1900
DGENRE=
TTITLE0=Troubles Knockin' At Your Door
TTITLE1=Ain't Got Time For That Stuff
TTITLE2=Just A Little Bit
TTITLE3=We'll Find A Way
TTITLE4=Too Late
TTITLE5=Wanted Man
TTITLE6=Bad Luck Blues
TTITLE7=Someone Like You
TTITLE8=Loaded 6 Shooter
TTITLE9=Wastin' My Time
TTITLE10=Take Me Back Home
EXTD=
EXTT0=
EXTT1=
EXTT2=
EXTT3=
EXTT4=
EXTT5=
EXTT6=
EXTT7=
EXTT8=
EXTT9=
EXTT10=
PLAYORDER=
